<?xml version="1.0" standalone="no"?><!DOCTYPE svg PUBLIC "-//W3C//DTD SVG 1.1//EN" "http://www.w3.org/Graphics/SVG/1.1/DTD/svg11.dtd"><svg class="icon" width="48px" height="48.00px" viewBox="0 0 1024 1024" version="1.1" xmlns="http://www.w3.org/2000/svg"><path fill="#2dabe2" d="M923.551164 483.455187c9.394495-3.613267 15.175723-13.007763 15.175724-23.124912v-137.304163c0-36.855328-29.628793-66.484121-66.484122-66.484122H154.647848c-36.855328 0-66.484121 29.628793-66.484122 66.484122v138.74947c0 10.839802 6.503881 20.234298 16.621031 23.847565 13.730416 5.058574 22.402258 17.343684 22.402258 31.796754s-8.671842 26.738179-22.402258 31.796754c-10.117149 3.613267-16.62103 13.007763-16.621031 23.847565v134.41355c0 36.855328 29.628793 66.484121 66.484122 66.484121h718.317572c36.855328 0 66.484121-29.628793 66.484121-66.484121V569.450953c0-10.117149-5.781228-19.511644-15.175723-23.124912-12.285109-5.058574-20.234298-17.343684-20.234298-31.0741s7.226535-26.015526 19.511644-31.796754z m-35.410021-37.577982c-22.402258 15.898377-36.132675 41.191249-36.132674 69.374736s13.730416 53.476359 36.132674 69.374735V708.200423c0 8.671842-7.226535 15.898377-15.898377 15.898377H154.647848c-8.671842 0-15.898377-7.226535-15.898377-15.898377V588.962597c23.847565-15.175723 39.023289-41.913903 39.023288-71.542696s-15.175723-55.644319-39.023288-71.542696v-122.851093c0-8.671842 7.226535-15.898377 15.898377-15.898377h718.317572c8.671842 0 15.898377 7.226535 15.898377 15.898377v122.851093z"  /><path fill="#2dabe2" d="M727.712068 419.139026m-27.460833 0a27.460833 27.460833 0 1 0 54.921665 0 27.460833 27.460833 0 1 0-54.921665 0Z"  /><path fill="#2dabe2" d="M727.712068 515.251941m-27.460833 0a27.460833 27.460833 0 1 0 54.921665 0 27.460833 27.460833 0 1 0-54.921665 0Z"  /><path fill="#2dabe2" d="M727.712068 611.364855m-27.460833 0a27.460833 27.460833 0 1 0 54.921665 0 27.460833 27.460833 0 1 0-54.921665 0Z"  /></svg>